HIERARCHY
ROOT Hips
{
 OFFSET 0.000000 0.000000 0.000000
 CHANNELS 6 Xposition Yposition Zposition Yrotation Xrotation Zrotation
 JOINT Chest
 {
  OFFSET 0.000000 9.585900 0.002600
  CHANNELS 3 Yrotation Xrotation Zrotation
  JOINT Chest2
  {
   OFFSET 0.000000 9.601200 -0.005300
   CHANNELS 3 Yrotation Xrotation Zrotation
   JOINT Chest3
   {
    OFFSET 0.000000 9.561800 0.000000
    CHANNELS 3 Yrotation Xrotation Zrotation
    JOINT Chest4
    {
     OFFSET 0.000000 9.552100 0.000000
     CHANNELS 3 Yrotation Xrotation Zrotation
     JOINT Neck
     {
      OFFSET 0.000000 14.453000 0.000000
      CHANNELS 3 Yrotation Xrotation Zrotation
      JOINT Head
      {
       OFFSET 0.000000 8.936500 -0.011300
       CHANNELS 3 Yrotation Xrotation Zrotation
       End Site
       {
        OFFSET 0.000000 17.073600 -0.006000
       }
      }
     }
     JOINT RightCollar
     {
      OFFSET -2.921100 9.558500 0.000000
      CHANNELS 3 Yrotation Xrotation Zrotation
      JOINT RightShoulder
      {
       OFFSET -13.519700 0.000000 0.000000
       CHANNELS 3 Yrotation Xrotation Zrotation
       JOINT RightElbow
       {
        OFFSET 0.000000 -29.696600 0.000000
        CHANNELS 3 Yrotation Xrotation Zrotation
        JOINT RightWrist
        {
         OFFSET 0.000000 -24.004700 0.000000
         CHANNELS 3 Yrotation Xrotation Zrotation
         End Site
         {
          OFFSET 0.000000 -17.728500 0.000000
         }
        }
       }
      }
     }
     JOINT LeftCollar
     {
      OFFSET 2.921100 9.558500 0.000000
      CHANNELS 3 Yrotation Xrotation Zrotation
      JOINT LeftShoulder
      {
       OFFSET 13.519700 0.000000 0.000000
       CHANNELS 3 Yrotation Xrotation Zrotation
       JOINT LeftElbow
       {
        OFFSET 0.000000 -29.696600 0.000000
        CHANNELS 3 Yrotation Xrotation Zrotation
        JOINT LeftWrist
        {
         OFFSET 0.000000 -24.004700 0.000000
         CHANNELS 3 Yrotation Xrotation Zrotation
         End Site
         {
          OFFSET 0.000000 -17.728500 0.000000
         }
        }
       }
      }
     }
    }
   }
  }
 }
 JOINT RightHip
 {
  OFFSET -7.771700 -0.012900 -0.001300
  CHANNELS 3 Yrotation Xrotation Zrotation
  JOINT RightKnee
  {
   OFFSET 0.000000 -40.869800 0.001200
   CHANNELS 3 Yrotation Xrotation Zrotation
   JOINT RightAnkle
   {
    OFFSET 0.000000 -39.717900 0.002100
    CHANNELS 3 Yrotation Xrotation Zrotation
    JOINT RightToe
    {
     OFFSET 0.000000 -4.965400 11.033500
     CHANNELS 3 Yrotation Xrotation Zrotation
     End Site
     {
      OFFSET 0.000000 -1.423100 5.872300
     }
    }
   }
  }
 }
 JOINT LeftHip
 {
  OFFSET 7.771700 -0.012900 -0.001300
  CHANNELS 3 Yrotation Xrotation Zrotation
  JOINT LeftKnee
  {
   OFFSET 0.000000 -40.869800 0.001200
   CHANNELS 3 Yrotation Xrotation Zrotation
   JOINT LeftAnkle
   {
    OFFSET 0.000000 -39.717900 0.002100
    CHANNELS 3 Yrotation Xrotation Zrotation
    JOINT LeftToe
    {
     OFFSET 0.000000 -4.965400 11.033500
     CHANNELS 3 Yrotation Xrotation Zrotation
     End Site
     {
      OFFSET 0.000000 -1.423100 5.872300
     }
    }
   }
  }
 }
}
MOTION
Frames: 9
Frame Time: 0.008333
0.000000 85.388000 0.000000 0.000000 -5.767877 0.000000 0.000000 11.653817 0.000000 0.000000 -5.885947 0.000000 0.000000 -0.000000 0.000000 0.000000 -0.000000 0.000000 0.000000 12.528835 0.000000 0.000000 0.711642 0.000000 0.000000 -0.000000 0.000000 0.000000 0.000000 -90.000000 0.000000 -2.309062 0.000000 0.000000 2.309062 0.000000 0.000000 -0.000000 0.000000 0.000000 -0.000000 90.000000 0.000000 -2.309062 0.000000 0.000000 2.309062 0.000000 0.000000 8.520406 0.000000 0.000000 1.905762 0.000000 -0.000000 -4.658285 0.000000 0.000000 -0.000000 0.000000 0.000000 8.520406 0.000000 0.000000 1.905762 0.000000 -0.000000 -4.658285 0.000000 0.000000 -0.000000 0.000000
-24.494902 57.988916 13.252132 177.297537 -51.397411 -2.858222 2.964906 20.200122 3.775067 1.499250 11.572975 1.999251 1.948891 14.457085 2.560925 1.499211 11.572956 1.999316 -2.494269 16.613559 1.226208 -4.904537 -4.885246 3.212438 4.101607 -0.519145 0.653994 9.902227 -26.834769 -12.185202 38.519167 -43.673863 -8.844051 25.399924 13.077317 8.767461 -11.904941 -5.263847 0.809868 -8.365000 -49.259778 25.455210 49.362447 -34.746099 -40.324672 6.286301 -12.494320 -5.738698 2.088203 -20.387906 -3.517130 -33.338508 73.407164 -37.297453 6.604676 -13.522117 11.014898 0.017359 -0.024287 -0.042084 -3.434322 -17.664563 6.494847 87.217809 84.187444 86.878360 -0.050179 -22.469612 -16.026039 0.000565 -0.021634 -0.010191
-24.497841 57.985726 13.245936 177.302863 -51.397454 -2.873820 2.982951 20.169464 3.839389 1.504540 11.553848 2.032240 1.956425 14.433007 2.602353 1.504482 11.553803 2.032281 -2.477103 16.664678 1.193690 -4.932378 -4.776257 3.106338 4.079261 -0.525438 0.614052 9.862417 -26.758817 -12.263845 38.366612 -43.676198 -8.679678 25.441218 13.156238 8.765107 -11.881354 -5.478897 0.906009 -8.784315 -49.415171 25.961368 49.332482 -34.811321 -40.215169 6.277570 -12.566854 -5.729307 2.082522 -20.386467 -3.521678 -33.335100 73.421668 -37.279562 6.610014 -13.533791 11.014911 0.007376 -0.021878 -0.043730 -3.401526 -17.676183 6.473925 87.499924 84.168599 87.226741 -0.042812 -22.487648 -16.050132 0.004594 -0.021455 -0.009888
-24.502661 57.981419 13.239865 177.328129 -51.392494 -2.899288 2.989310 20.135332 3.895548 1.491785 11.559190 2.027355 1.991610 14.387240 2.674365 1.510247 11.536073 2.063546 -2.461644 16.707505 1.165587 -4.963188 -4.678435 3.011233 4.060187 -0.541560 0.579651 9.818974 -26.688421 -12.340743 38.203747 -43.667303 -8.496051 25.483811 13.238347 8.760677 -11.862247 -5.669522 1.001975 -9.190594 -49.569886 26.456923 49.221538 -34.906598 -40.050000 6.268804 -12.618005 -5.717943 2.072694 -20.388011 -3.543712 -33.288083 73.438440 -37.215337 6.621226 -13.540617 11.015987 0.001902 -0.019317 -0.034770 -3.386087 -17.692117 6.451503 87.624612 84.150035 87.394711 -0.039760 -22.491355 -16.053260 0.005213 -0.023645 -0.016869
-24.508771 57.977476 13.233477 177.344593 -51.393450 -2.914128 3.001191 20.106990 3.944533 1.479746 11.565941 2.025345 2.025580 14.343322 2.739335 1.516355 11.519774 2.092937 -2.524374 16.767856 1.093858 -4.926583 -4.611474 2.953281 4.043288 -0.563930 0.550850 9.786670 -26.623495 -12.421467 38.029744 -43.646673 -8.298818 25.527346 13.322006 8.756502 -11.846629 -5.835277 1.092069 -9.594183 -49.721414 26.956056 49.041678 -35.038299 -39.831754 6.262171 -12.645062 -5.706916 2.072091 -20.382340 -3.567168 -33.245743 73.452457 -37.156090 6.630429 -13.548929 11.014819 0.000819 -0.016504 -0.031328 -3.376039 -17.698890 6.431679 87.739765 84.133467 87.539399 -0.040677 -22.497333 -16.058036 0.005799 -0.021545 -0.016946
-24.513843 57.974123 13.227495 177.358539 -51.399666 -2.935703 3.007183 20.098094 3.978299 1.526551 11.503263 2.122013 1.966749 14.389269 2.683321 1.556544 11.477052 2.158277 -2.579775 16.820201 1.027962 -4.902125 -4.556333 2.901942 4.033034 -0.590958 0.523844 9.771282 -26.564640 -12.508540 37.847686 -43.615920 -8.096171 25.570642 13.405217 8.751279 -11.833006 -5.987845 1.171444 -9.983665 -49.862135 27.448024 48.796388 -35.209839 -39.568205 6.256891 -12.644494 -5.685194 2.070301 -20.371377 -3.578775 -33.221690 73.468381 -37.112134 6.643599 -13.563415 11.008359 -0.003305 -0.012793 -0.027405 -3.381661 -17.695376 6.431893 87.887290 84.128657 87.706623 -0.041725 -22.510296 -16.067487 0.008464 -0.019178 -0.014048
-24.519798 57.970335 13.223028 177.367282 -51.402339 -2.949086 3.013300 20.086326 4.005505 1.550218 11.471760 2.178452 1.940476 14.404646 2.661669 1.592146 11.445187 2.218911 -2.586816 16.844429 0.994157 -4.954531 -4.510914 2.853245 4.028024 -0.626402 0.495269 9.743267 -26.483961 -12.571230 37.732329 -43.595425 -7.966414 25.604632 13.447060 8.734388 -11.821955 -6.130531 1.243778 -10.332790 -49.996785 27.907449 48.485289 -35.412405 -39.272648 6.259948 -12.624293 -5.645321 2.076637 -20.362479 -3.588665 -33.196322 73.473306 -37.071354 6.646294 -13.568188 11.011458 -0.004669 -0.010741 -0.028112 -3.370198 -17.701302 6.410109 88.026277 84.115622 87.883502 -0.025456 -22.518877 -16.084354 0.010725 -0.016641 -0.012999
-24.526031 57.966902 13.219849 177.377068 -51.405994 -2.961244 3.035536 20.054853 4.073268 1.538456 11.478838 2.177396 1.985197 14.353629 2.756676 1.548949 11.473471 2.186761 -2.594929 16.861380 0.967870 -5.000306 -4.472714 2.803927 4.023818 -0.671529 0.466926 9.778471 -26.448822 -12.675883 37.534782 -43.536470 -7.759664 25.630269 13.485490 8.702016 -11.813651 -6.256949 1.314798 -10.625983 -50.133334 28.318858 48.121429 -35.624861 -38.959534 6.274638 -12.604870 -5.592447 2.084232 -20.350135 -3.600081 -33.173460 73.475122 -37.033675 6.656061 -13.577249 11.015147 -0.011027 -0.005754 -0.028915 -3.363682 -17.705901 6.387765 88.142554 84.106724 88.030566 -0.008443 -22.522972 -16.096836 0.011313 -0.016316 -0.012393
-24.530507 57.964380 13.217951 177.390050 -51.413554 -2.984795 3.049478 20.042904 4.125054 1.538474 11.474417 2.191770 2.003557 14.332775 2.803259 1.538495 11.474418 2.191682 -2.596583 16.877105 0.945195 -4.978101 -4.427237 2.744864 4.020813 -0.720394 0.439384 9.833463 -26.417768 -12.776884 37.336028 -43.465694 -7.547710 25.691472 13.594421 8.734575 -11.802110 -6.370841 1.381095 -10.866647 -50.265204 28.681153 47.721646 -35.827896 -38.642555 6.298468 -12.597947 -5.531632 2.108172 -20.323107 -3.593546 -33.175600 73.462628 -37.010603 6.648819 -13.589759 11.028662 -0.016222 0.005937 -0.024536 -3.370282 -17.706054 6.374828 88.246129 84.113028 88.167684 0.020293 -22.525338 -16.117935 0.014222 -0.017136 -0.011368
